<?xml version="1.0" encoding="utf-8"?>
<!DOCTYPE svg PUBLIC "-//W3C//DTD SVG 20010904//EN" "http://www.w3.org/TR/2001/REC-SVG-20010904/DTD/svg10.dtd">
<svg version="1.0" xmlns="http://www.w3.org/2000/svg" width="443pt" height="163pt" viewBox="0 0 443 163" style="" preserveAspectRatio="xMidYMid meet">
<g fill="#000000FF" stroke="#000000FF">
<path d="M 293.544 50.207 C 292.604 52.568 291.230 55.850 290.490 57.500 C 289.750 59.150 285.724 69.275 281.545 80.000 C 277.365 90.725 273.528 100.400 273.018 101.500 C 272.509 102.600 270.019 108.900 267.485 115.500 C 264.951 122.100 262.452 128.288 261.930 129.250 C 261.087 130.808 261.523 131.000 265.910 131.000 C 268.619 131.000 271.511 130.741 272.336 130.424 C 273.596 129.941 275.745 125.259 280.562 112.500 C 280.978 111.400 281.246 110.163 281.159 109.750 C 280.965 108.834 279.609 108.898 302.000 108.766 L 320.500 108.657 322.212 112.078 C 323.153 113.960 325.090 118.724 326.516 122.664 C 327.942 126.604 329.796 130.092 330.636 130.414 C 332.979 131.313 341.000 131.110 341.000 130.151 C 341.000 129.183 331.337 103.649 330.023 101.145 C 329.548 100.240 327.938 96.350 326.447 92.500 C 324.955 88.650 323.185 84.150 322.514 82.500 C 321.842 80.850 320.257 76.800 318.991 73.500 C 317.724 70.200 316.308 67.073 315.844 66.550 C 315.380 66.028 315.000 64.865 315.000 63.967 C 315.000 63.069 313.453 58.771 311.561 54.417 L 308.123 46.500 301.687 46.207 L 295.251 45.914 293.544 50.207 M 306.489 69.500 C 308.506 75.000 311.697 83.550 313.581 88.500 C 315.465 93.450 317.005 98.039 317.003 98.699 C 317.001 99.561 312.910 99.982 302.399 100.199 C 294.368 100.364 287.340 100.215 286.780 99.867 C 285.833 99.279 287.565 92.121 290.014 86.500 C 292.756 80.208 296.419 70.749 298.091 65.648 C 301.391 55.574 301.383 55.570 306.489 69.500 "/></g>
<g fill="#000000FF" stroke="#000000FF">
<path d="M 65.270 46.513 C 58.169 48.056 50.034 53.007 44.456 59.180 C 30.593 74.525 31.025 102.789 45.363 118.406 C 47.683 120.933 49.880 123.000 50.246 123.000 C 50.612 123.000 52.534 124.101 54.517 125.447 C 65.337 132.789 86.746 133.876 100.000 127.756 C 102.475 126.613 104.757 125.638 105.071 125.589 C 105.386 125.540 106.398 124.745 107.321 123.821 C 108.754 122.389 109.000 119.784 109.000 106.071 L 109.000 90.000 96.000 90.000 L 83.000 90.000 83.000 92.918 C 83.000 98.530 83.627 99.000 91.107 99.000 L 98.000 99.000 98.000 108.525 C 98.000 118.007 97.988 118.054 95.250 119.045 C 93.738 119.593 91.590 120.503 90.479 121.067 C 87.375 122.643 76.169 122.742 69.652 121.252 C 55.841 118.094 46.889 105.946 46.889 90.364 C 46.889 81.639 47.890 74.000 49.034 74.000 C 49.478 74.000 50.133 72.673 50.489 71.050 C 51.363 67.069 57.510 60.935 63.551 58.015 C 72.906 53.492 87.058 54.196 96.588 59.657 C 102.014 62.767 103.655 62.616 105.981 58.791 C 108.380 54.846 107.529 53.603 99.737 49.672 C 90.435 44.979 77.700 43.812 65.270 46.513 "/></g>
<g fill="#000000FF" stroke="#000000FF">
<path d="M 362.398 47.405 C 362.102 48.177 362.003 50.315 362.180 52.155 L 362.500 55.500 375.163 55.500 C 382.127 55.500 388.080 55.753 388.391 56.062 C 388.703 56.371 388.987 73.359 389.024 93.812 L 389.091 131.000 395.545 131.000 L 402.000 131.000 402.000 93.250 L 401.999 55.500 415.250 55.500 L 428.500 55.500 428.805 50.750 L 429.110 46.000 396.023 46.000 C 368.532 46.000 362.846 46.238 362.398 47.405 "/></g>
</svg>
